<?xml version="1.0" encoding="UTF-8"?>
<svg version="1.1" xmlns="http://www.w3.org/2000/svg" width="48" height="48">
<path d="M0 0 C15.84 0 31.68 0 48 0 C48 15.84 48 31.68 48 48 C32.16 48 16.32 48 0 48 C0 32.16 0 16.32 0 0 Z " fill="#9FA09F" transform="translate(0,0)"/>
<path d="M0 0 C15.84 0 31.68 0 48 0 C48 15.84 48 31.68 48 48 C32.16 48 16.32 48 0 48 C0 32.16 0 16.32 0 0 Z M2 2 C2 16.52 2 31.04 2 46 C3.98 46 5.96 46 8 46 C8.061875 44.948125 8.12375 43.89625 8.1875 42.8125 C9.13408616 38.3708265 10.59156258 36.88406243 14 34 C14.33 34.33 14.66 34.66 15 35 C13.68 35.99 12.36 36.98 11 38 C11.27034634 40.43717258 11.27034634 40.43717258 12 43 C14.95377498 45.36980013 14.95377498 45.36980013 19 45 C19 42.36 19 39.72 19 37 C24.445 36.505 24.445 36.505 30 36 C30 35.34 30 34.68 30 34 C28.02 33.01 26.04 32.02 24 31 C24.25 29.125 24.25 29.125 25 27 C27.0625 25.75 27.0625 25.75 29 25 C29 25.66 29 26.32 29 27 C32.4352048 29.29013653 33.985331 29.17842973 38 29 C38 27.68 38 26.36 38 25 C37.05125 24.814375 36.1025 24.62875 35.125 24.4375 C32 23 32 23 30.625 19.375 C30.41875 18.26125 30.2125 17.1475 30 16 C26.65589835 15.41286765 23.40034577 14.94118899 20 15 C17.47409152 16.77154652 17.47409152 16.77154652 16 19 C15.34 19 14.68 19 14 19 C16.46153846 14.2 16.46153846 14.2 19.1875 13.1875 C19.785625 13.125625 20.38375 13.06375 21 13 C21 12.34 21 11.68 21 11 C22.32 10.67 23.64 10.34 25 10 C25.33 8.68 25.66 7.36 26 6 C21.24792529 5.56799321 18.21789302 7.01510917 14 9 C18.15338192 5.99182242 21.8190226 5.47974565 26.8125 5.3125 C27.50537109 5.27833984 28.19824219 5.24417969 28.91210938 5.20898438 C30.60752849 5.12713656 32.30373458 5.06187635 34 5 C34.11472656 5.76699219 34.22945312 6.53398438 34.34765625 7.32421875 C35.2448825 11.00445815 37.1651808 12.58003239 40 15 C40.66 15 41.32 15 42 15 C42 15.66 42 16.32 42 17 C40.02 17 38.04 17 36 17 C35.67 18.32 35.34 19.64 35 21 C36.98 21.99 38.96 22.98 41 24 C40.46288277 27.86724404 39.40657902 29.96561775 37 33 C37 33.66 37 34.32 37 35 C35.68 35.66 34.36 36.32 33 37 C34.15565651 39.53884453 34.15565651 39.53884453 36 42 C38.59122743 42.88658466 38.59122743 42.88658466 41 43 C43.8503026 39.79054398 44.43451699 37.50011452 44.6875 33.25 C44.75324219 32.26515625 44.81898437 31.2803125 44.88671875 30.265625 C44.94279297 29.14414062 44.94279297 29.14414062 45 28 C45.33 28 45.66 28 46 28 C46 19.42 46 10.84 46 2 C31.48 2 16.96 2 2 2 Z M28 20 C28.66 20 29.32 20 30 20 C30 21.65 30 23.3 30 25 C29.01 24.67 28.02 24.34 27 24 C27.33 22.68 27.66 21.36 28 20 Z " fill="#56534F" transform="translate(0,0)"/>
<path d="M0 0 C0.99 0.33 1.98 0.66 3 1 C2.34 1.66 1.68 2.32 1 3 C1.886875 2.505 2.77375 2.01 3.6875 1.5 C6.87586238 0.05621326 8.58187546 -0.30159922 12 0 C11.67 1.32 11.34 2.64 11 4 C9.68 4.33 8.36 4.66 7 5 C7 5.66 7 6.32 7 7 C6.401875 7.061875 5.80375 7.12375 5.1875 7.1875 C2.12856542 8.3236757 1.44958901 10.17330142 0 13 C2.46800047 11.84826645 4.04783565 10.95216435 6 9 C8.3828125 9.0234375 8.3828125 9.0234375 11.125 9.375 C12.03507812 9.48585938 12.94515625 9.59671875 13.8828125 9.7109375 C14.58148437 9.80632813 15.28015625 9.90171875 16 10 C16.20625 11.11375 16.4125 12.2275 16.625 13.375 C17.61628301 17.26599195 17.61628301 17.26599195 21.125 18.4375 C22.07375 18.623125 23.0225 18.80875 24 19 C24 20.32 24 21.64 24 23 C18.375 23.25 18.375 23.25 15 21 C15 20.34 15 19.68 15 19 C12.44496043 20.28288757 12.44496043 20.28288757 10 22 C10 22.99 10 23.98 10 25 C11.98 25.99 13.96 26.98 16 28 C16 28.66 16 29.32 16 30 C12.37 30.33 8.74 30.66 5 31 C5 33.64 5 36.28 5 39 C1.62537285 38.45276317 -0.08235 37.9451 -3 36 C-2.6875 33.625 -2.6875 33.625 -2 31 C-1.01 30.34 -0.02 29.68 1 29 C-2.01530615 28.65344564 -2.01530615 28.65344564 -3.625 30.5625 C-5.37947593 33.67270734 -5.66090842 36.47344754 -6 40 C-7.98 40 -9.96 40 -12 40 C-11.67 37.69 -11.34 35.38 -11 33 C-10.34 33 -9.68 33 -9 33 C-8.71125 32.2575 -8.4225 31.515 -8.125 30.75 C-7.17697356 28.43260203 -6.15154089 26.22082885 -5 24 C-5.66 23.34 -6.32 22.68 -7 22 C-7.89556215 16.47604586 -8.16853016 11.1330775 -5.43359375 6.140625 C-3.71842638 3.96461468 -1.97081171 1.94567381 0 0 Z M14 14 C13.67 15.32 13.34 16.64 13 18 C13.99 18.33 14.98 18.66 16 19 C16 17.35 16 15.7 16 14 C15.34 14 14.68 14 14 14 Z " fill="#464140" transform="translate(14,6)"/>
<path d="M0 0 C15.84 0 31.68 0 48 0 C48 15.84 48 31.68 48 48 C32.16 48 16.32 48 0 48 C0 32.16 0 16.32 0 0 Z M2 2 C2 16.52 2 31.04 2 46 C3.98 46 5.96 46 8 46 C8.061875 44.948125 8.12375 43.89625 8.1875 42.8125 C9.13408616 38.3708265 10.59156258 36.88406243 14 34 C14.33 34.33 14.66 34.66 15 35 C13.68 35.99 12.36 36.98 11 38 C11.27034634 40.43717258 11.27034634 40.43717258 12 43 C14.95377498 45.36980013 14.95377498 45.36980013 19 45 C19 42.36 19 39.72 19 37 C24.94 36.505 24.94 36.505 31 36 C31 36.99 31 37.98 31 39 C29.35 39 27.7 39 26 39 C25.34 40.32 24.68 41.64 24 43 C27.03334784 46.03334784 29.75227325 45.65558972 34 46 C37.96 46 41.92 46 46 46 C46 31.48 46 16.96 46 2 C31.48 2 16.96 2 2 2 Z " fill="#030404" transform="translate(0,0)"/>
<path d="M0 0 C12.54 0 25.08 0 38 0 C37.67 0.99 37.34 1.98 37 3 C36.42475586 2.84152588 35.84951172 2.68305176 35.25683594 2.51977539 C33.09060223 2.02086674 31.10677317 1.80111676 28.890625 1.68359375 C28.13652344 1.64169922 27.38242187 1.59980469 26.60546875 1.55664062 C25.43951172 1.49766602 25.43951172 1.49766602 24.25 1.4375 C23.06083984 1.37272461 23.06083984 1.37272461 21.84765625 1.30664062 C19.89862185 1.20097009 17.94933252 1.10002034 16 1 C15.67 1.99 15.34 2.98 15 4 C14.4225 4.2475 13.845 4.495 13.25 4.75 C9.65997278 6.74445956 7.56345729 9.27510971 6 13 C5.29216293 18.87719263 4.84346261 24.78981179 8 30 C7.360625 30.78375 6.72125 31.5675 6.0625 32.375 C4.01857687 34.79539281 4.01857687 34.79539281 3 37 C2.34 37 1.68 37 1 37 C1 38.98 1 40.96 1 43 C0.67 43 0.34 43 0 43 C0 28.81 0 14.62 0 0 Z " fill="#F3F6F3" transform="translate(2,2)"/>
<path d="M0 0 C1.21816406 0.03480469 1.21816406 0.03480469 2.4609375 0.0703125 C3.68683594 0.09738281 3.68683594 0.09738281 4.9375 0.125 C5.87722656 0.15980469 5.87722656 0.15980469 6.8359375 0.1953125 C7.1659375 2.1753125 7.4959375 4.1553125 7.8359375 6.1953125 C9.8159375 6.8553125 11.7959375 7.5153125 13.8359375 8.1953125 C13.8359375 9.5153125 13.8359375 10.8353125 13.8359375 12.1953125 C8.2109375 12.4453125 8.2109375 12.4453125 4.8359375 10.1953125 C4.8359375 9.5353125 4.8359375 8.8753125 4.8359375 8.1953125 C2.28089793 9.47820007 2.28089793 9.47820007 -0.1640625 11.1953125 C-0.1640625 12.1853125 -0.1640625 13.1753125 -0.1640625 14.1953125 C1.8159375 15.1853125 3.7959375 16.1753125 5.8359375 17.1953125 C5.8359375 17.8553125 5.8359375 18.5153125 5.8359375 19.1953125 C-1.11331691 19.97873575 -5.75562334 19.19324121 -11.4453125 14.99609375 C-14.16904639 12.14236347 -14.24146594 10.06548447 -14.1640625 6.1953125 C-10.82032775 6.75260163 -8.13093251 7.54705139 -5.1640625 9.1953125 C-5.0403125 8.0815625 -4.9165625 6.9678125 -4.7890625 5.8203125 C-3.84539786 0.34705757 -3.84539786 0.34705757 0 0 Z M3.8359375 3.1953125 C3.5059375 4.5153125 3.1759375 5.8353125 2.8359375 7.1953125 C3.8259375 7.5253125 4.8159375 7.8553125 5.8359375 8.1953125 C5.8359375 6.5453125 5.8359375 4.8953125 5.8359375 3.1953125 C5.1759375 3.1953125 4.5159375 3.1953125 3.8359375 3.1953125 Z " fill="#EA867D" transform="translate(24.1640625,16.8046875)"/>
<path d="M0 0 C1.05960938 0.00676758 1.05960938 0.00676758 2.140625 0.01367188 C3.88545275 0.02546125 5.630237 0.04339676 7.375 0.0625 C7.766875 1.155625 8.15875 2.24875 8.5625 3.375 C10.08841884 7.01372954 11.84442012 8.24949952 15.375 10.0625 C15.375 10.7225 15.375 11.3825 15.375 12.0625 C14.26125 12.31 13.1475 12.5575 12 12.8125 C8.32884802 13.67255339 8.32884802 13.67255339 6.9375 16.1875 C6.751875 16.80625 6.56625 17.425 6.375 18.0625 C6.045 16.0825 5.715 14.1025 5.375 12.0625 C3.46200862 11.78577798 1.54422064 11.54207185 -0.375 11.3125 C-1.44234375 11.17328125 -2.5096875 11.0340625 -3.609375 10.890625 C-6.75461811 10.77043121 -6.75461811 10.77043121 -9.015625 13.046875 C-9.54671875 13.71203125 -10.0778125 14.3771875 -10.625 15.0625 C-11.615 14.7325 -12.605 14.4025 -13.625 14.0625 C-11.875 11.0625 -11.875 11.0625 -9.625 8.0625 C-8.305 8.0625 -6.985 8.0625 -5.625 8.0625 C-5.625 7.4025 -5.625 6.7425 -5.625 6.0625 C-4.985625 5.794375 -4.34625 5.52625 -3.6875 5.25 C-1.29368314 4.17582248 -1.29368314 4.17582248 -0.625 1.0625 C-1.470625 1.35125 -2.31625 1.64 -3.1875 1.9375 C-6.64861041 3.07022704 -10.11872557 4.08074316 -13.625 5.0625 C-9.02505896 0.30922759 -6.48382851 -0.07775809 0 0 Z " fill="#21221F" transform="translate(26.625,4.9375)"/>
<path d="M0 0 C15.84 0 31.68 0 48 0 C47.67 14.85 47.34 29.7 47 45 C46.67 45 46.34 45 46 45 C46 30.81 46 16.62 46 2 C31.48 2 16.96 2 2 2 C2 16.19 2 30.38 2 45 C1.67 45 1.34 45 1 45 C0.67 30.15 0.34 15.3 0 0 Z " fill="#323633" transform="translate(0,0)"/>
<path d="M0 0 C0.99 0 1.98 0 3 0 C3.33 0.99 3.66 1.98 4 3 C2.02 3.99 2.02 3.99 0 5 C0 6.32 0 7.64 0 9 C3.465 10.485 3.465 10.485 7 12 C6.814375 10.700625 6.62875 9.40125 6.4375 8.0625 C6.12109375 5.84765625 6.12109375 5.84765625 6 4 C7 3 7 3 9.72265625 2.90234375 C11.37587891 2.91974609 11.37587891 2.91974609 13.0625 2.9375 C14.16722656 2.94652344 15.27195312 2.95554688 16.41015625 2.96484375 C17.26480469 2.97644531 18.11945312 2.98804688 19 3 C19 3.99 19 4.98 19 6 C17.02 6.66 15.04 7.32 13 8 C13.33 8.99 13.66 9.98 14 11 C16.64 11.33 19.28 11.66 22 12 C22 12.33 22 12.66 22 13 C6.655 13.495 6.655 13.495 -9 14 C-9 13.67 -9 13.34 -9 13 C-7.35 13 -5.7 13 -4 13 C-4.0825 11.96875 -4.165 10.9375 -4.25 9.875 C-3.95947619 5.37188097 -2.90441261 3.40231192 0 0 Z " fill="#1B1E1B" transform="translate(12,33)"/>
<path d="M0 0 C0.99 0.33 1.98 0.66 3 1 C2.34 1.66 1.68 2.32 1 3 C1.886875 2.505 2.77375 2.01 3.6875 1.5 C6.87586238 0.05621326 8.58187546 -0.30159922 12 0 C11.67 1.32 11.34 2.64 11 4 C9.68 4.33 8.36 4.66 7 5 C7 5.66 7 6.32 7 7 C6.4225 7.04125 5.845 7.0825 5.25 7.125 C1.91330635 8.42260308 0.92810084 11.07675033 -1 14 C-1.99 14 -2.98 14 -4 14 C-3.67 11.69 -3.34 9.38 -3 7 C-5.26954631 10.40431947 -5.36549949 12.16524202 -5.625 16.1875 C-5.69976562 17.27417969 -5.77453125 18.36085938 -5.8515625 19.48046875 C-5.90054687 20.31191406 -5.94953125 21.14335937 -6 22 C-6.33 22 -6.66 22 -7 22 C-7.69139512 14.89948183 -8.09837535 9.47941744 -3.5 3.6875 C-2.36295328 2.43088289 -1.20599079 1.19060826 0 0 Z " fill="#A88786" transform="translate(14,6)"/>
<path d="M0 0 C2.31 0 4.62 0 7 0 C7.33 1.98 7.66 3.96 8 6 C9.98 6.66 11.96 7.32 14 8 C14 9.32 14 10.64 14 12 C8.375 12.25 8.375 12.25 5 10 C5 9.34 5 8.68 5 8 C2.44496043 9.28288757 2.44496043 9.28288757 0 11 C-0.33218192 14.00259517 -0.33218192 14.00259517 1.5 15.6875 C2.2425 16.3371875 2.2425 16.3371875 3 17 C1.02 16.67 -0.96 16.34 -3 16 C-3.33 14.35 -3.66 12.7 -4 11 C-3.34 10.67 -2.68 10.34 -2 10 C0.17282569 8.23173046 0.17282569 8.23173046 0.265625 6.01953125 C0.25140615 4.01111857 0.13142025 2.00415878 0 0 Z M4 3 C3.67 4.32 3.34 5.64 3 7 C3.99 7.33 4.98 7.66 6 8 C6 6.35 6 4.7 6 3 C5.34 3 4.68 3 4 3 Z " fill="#F5BD95" transform="translate(24,17)"/>
<path d="M0 0 C0.05402274 2.10388569 0.09280256 4.20816714 0.125 6.3125 C0.14820313 7.48425781 0.17140625 8.65601563 0.1953125 9.86328125 C0 13 0 13 -2 16 C-4.3125 15.8125 -4.3125 15.8125 -7 15 C-8.8125 12.4375 -8.8125 12.4375 -10 10 C-9.38125 9.773125 -8.7625 9.54625 -8.125 9.3125 C-5.35871763 7.60391383 -5.09758944 6.00007779 -4 3 C-1.4137931 0 -1.4137931 0 0 0 Z " fill="#ECEFEC" transform="translate(43,27)"/>
<path d="M0 0 C1.65 0 3.3 0 5 0 C5.33 1.65 5.66 3.3 6 5 C-1.33030178 8.74700289 -1.33030178 8.74700289 -4.8125 10.0625 C-7.11633083 11.04985607 -8.3738846 12.11712953 -10 14 C-10.99 13.67 -11.98 13.34 -13 13 C-11.25 10 -11.25 10 -9 7 C-7.68 7 -6.36 7 -5 7 C-5 6.34 -5 5.68 -5 5 C-4.360625 4.731875 -3.72125 4.46375 -3.0625 4.1875 C-0.66868314 3.11332248 -0.66868314 3.11332248 0 0 Z " fill="#BF443C" transform="translate(26,6)"/>
<path d="M0 0 C2.06723714 3.10085571 2.24497423 3.72931681 2.1953125 7.23046875 C2.18564453 8.43413086 2.18564453 8.43413086 2.17578125 9.66210938 C2.15902344 10.49548828 2.14226563 11.32886719 2.125 12.1875 C2.11597656 13.03248047 2.10695313 13.87746094 2.09765625 14.74804688 C2.07410703 16.83215243 2.03823647 18.91611217 2 21 C-0.64 21 -3.28 21 -6 21 C-6 20.01 -6 19.02 -6 18 C-5.01 18 -4.02 18 -3 18 C-0.73150334 14.34827367 -0.6104049 10.9872882 -0.375 6.75 C-0.30023438 5.48671875 -0.22546875 4.2234375 -0.1484375 2.921875 C-0.09945312 1.95765625 -0.05046875 0.9934375 0 0 Z " fill="#6C706C" transform="translate(44,25)"/>
<path d="M0 0 C1.98 0 3.96 0 6 0 C6 0.66 6 1.32 6 2 C5.360625 2.268125 4.72125 2.53625 4.0625 2.8125 C1.66868314 3.88667752 1.66868314 3.88667752 1 7 C1.99 7.33 2.98 7.66 4 8 C4 9.65 4 11.3 4 13 C0.49285949 11.10424837 -1.94461059 9.46170848 -4 6 C-4 5.01 -4 4.02 -4 3 C-3.01 3 -2.02 3 -1 3 C-0.67 2.01 -0.34 1.02 0 0 Z " fill="#CACBCA" transform="translate(40,2)"/>
<path d="M0 0 C0.66 0.33 1.32 0.66 2 1 C1.125 5.875 1.125 5.875 0 7 C-0.36760731 9.32817964 -0.70241581 11.6618385 -1 14 C-2.98 14 -4.96 14 -7 14 C-6.67 11.69 -6.34 9.38 -6 7 C-5.34 7 -4.68 7 -4 7 C-3.71125 6.21625 -3.4225 5.4325 -3.125 4.625 C-2 2 -2 2 0 0 Z " fill="#999A99" transform="translate(9,32)"/>
<path d="M0 0 C2.8992226 0.46761655 3.86675182 0.86675182 6 3 C6.125 6.125 6.125 6.125 6 9 C2.62537285 8.45276317 0.91765 7.9451 -2 6 C-1.125 1.125 -1.125 1.125 0 0 Z " fill="#2C306A" transform="translate(13,36)"/>
<path d="M0 0 C2.625 -0.1875 2.625 -0.1875 5 0 C4.67 1.32 4.34 2.64 4 4 C2.68 4.33 1.36 4.66 0 5 C0 5.66 0 6.32 0 7 C-0.598125 7.103125 -1.19625 7.20625 -1.8125 7.3125 C-4.28243264 8.08876455 -5.32251235 9.07088921 -7 11 C-7.3125 8.6875 -7.3125 8.6875 -7 6 C-4.625 4.375 -4.625 4.375 -2 3 C-1.34 2.01 -0.68 1.02 0 0 Z " fill="#E99897" transform="translate(21,6)"/>
<path d="M0 0 C3.40990297 0.487129 4.51618402 1.71945396 6.625 4.375 C6.625 5.035 6.625 5.695 6.625 6.375 C3.655 6.375 0.685 6.375 -2.375 6.375 C-3.035 5.055 -3.695 3.735 -4.375 2.375 C-2.375 0.375 -2.375 0.375 0 0 Z " fill="#9E9F9A" transform="translate(28.375,38.625)"/>
<path d="M0 0 C0.33 0 0.66 0 1 0 C1.1953125 1.953125 1.390625 3.90625 1.5859375 5.859375 C2.24802944 9.28226541 3.13935186 11.34328054 5.9453125 13.484375 C7.02425781 14.11085938 7.02425781 14.11085938 8.125 14.75 C8.84945313 15.17796875 9.57390625 15.6059375 10.3203125 16.046875 C10.87460937 16.36140625 11.42890625 16.6759375 12 17 C11.01 17.99 10.02 18.98 9 20 C7.68 18.68 6.36 17.36 5 16 C4.34 16.33 3.68 16.66 3 17 C-0.61601216 11.42531458 -0.30720059 6.39432346 0 0 Z " fill="#3D3A39" transform="translate(8,18)"/>
<path d="M0 0 C0.99 0 1.98 0 3 0 C3.33 0.99 3.66 1.98 4 3 C2.02 3.99 2.02 3.99 0 5 C-0.43386092 8.87797662 -0.43386092 8.87797662 1.5 10.75 C1.995 11.1625 2.49 11.575 3 12 C0.69 12.33 -1.62 12.66 -4 13 C-4.34203764 8.72452947 -4.21269922 6.40339507 -2.1875 2.5625 C-1.465625 1.716875 -0.74375 0.87125 0 0 Z " fill="#1E2023" transform="translate(12,33)"/>
<path d="M0 0 C1.32 0 2.64 0 4 0 C4.474375 0.639375 4.94875 1.27875 5.4375 1.9375 C6.86542962 4.25475209 6.86542962 4.25475209 9.6875 4.75 C10.450625 4.8325 11.21375 4.915 12 5 C8.51131349 7.32579101 7.10281481 7.41865457 3 7 C0.625 5.5 0.625 5.5 -1 4 C-0.67 2.68 -0.34 1.36 0 0 Z " fill="#38332F" transform="translate(24,27)"/>
<path d="M0 0 C0.66 0 1.32 0 2 0 C2.33 2.64 2.66 5.28 3 8 C1.1875 9.5625 1.1875 9.5625 -1 11 C-1.99 10.67 -2.98 10.34 -4 10 C-3.67 9.67 -3.34 9.34 -3 9 C-2.855625 7.865625 -2.71125 6.73125 -2.5625 5.5625 C-2 2 -2 2 0 0 Z " fill="#EB7C7A" transform="translate(22,17)"/>
<path d="M0 0 C0.66 0 1.32 0 2 0 C2 1.65 2 3.3 2 5 C1.01 4.67 0.02 4.34 -1 4 C-0.67 2.68 -0.34 1.36 0 0 Z M-2 5 C-1.01 5 -0.02 5 1 5 C1 5.66 1 6.32 1 7 C3.64 7.66 6.28 8.32 9 9 C9 9.66 9 10.32 9 11 C6.69 11 4.38 11 2 11 C1.731875 10.360625 1.46375 9.72125 1.1875 9.0625 C0.11332248 6.66868314 0.11332248 6.66868314 -3 6 C-2.67 5.67 -2.34 5.34 -2 5 Z " fill="#E9797B" transform="translate(28,20)"/>
<path d="M0 0 C0 0.66 0 1.32 0 2 C-1.6396875 2.6496875 -1.6396875 2.6496875 -3.3125 3.3125 C-6.09408793 4.49495641 -8.06361939 5.60800043 -10 8 C-10.99 7.67 -11.98 7.34 -13 7 C-9.58215962 1.2629108 -9.58215962 1.2629108 -7.0625 0.125 C-4.69993629 -0.01818568 -2.36614751 -0.06572632 0 0 Z " fill="#AC3838" transform="translate(26,12)"/>
<path d="M0 0 C0.99 0.66 1.98 1.32 3 2 C1.50079488 5.11373372 -0.08152136 8.12228205 -2 11 C-2.66 11 -3.32 11 -4 11 C-4 12.98 -4 14.96 -4 17 C-4.33 17 -4.66 17 -5 17 C-5 13.37 -5 9.74 -5 6 C-3.68 6 -2.36 6 -1 6 C-0.67 4.02 -0.34 2.04 0 0 Z " fill="#DBE2E3" transform="translate(7,28)"/>
<path d="M0 0 C0.33 0.66 0.66 1.32 1 2 C1.66 2.33 2.32 2.66 3 3 C2.175 3.433125 1.35 3.86625 0.5 4.3125 C-0.7375 5.1478125 -0.7375 5.1478125 -2 6 C-2.33218192 9.00259517 -2.33218192 9.00259517 -0.5 10.6875 C0.2425 11.3371875 0.2425 11.3371875 1 12 C-1.97 11.505 -1.97 11.505 -5 11 C-5.8125 8.8125 -5.8125 8.8125 -6 6 C-3.625 3.25 -3.625 3.25 -1 1 C-0.67 0.67 -0.34 0.34 0 0 Z " fill="#F2C497" transform="translate(26,22)"/>
<path d="M0 0 C2.64 0.33 5.28 0.66 8 1 C8.33 2.65 8.66 4.3 9 6 C5.65626525 5.44271087 2.96687001 4.64826111 0 3 C0 2.01 0 1.02 0 0 Z " fill="#BABBBA" transform="translate(35,18)"/>
<path d="M0 0 C1 2 1 2 0.0625 5.125 C-0.288125 6.07375 -0.63875 7.0225 -1 8 C0.65 8 2.3 8 4 8 C3.67 9.32 3.34 10.64 3 12 C1.68 11.67 0.36 11.34 -1 11 C-1.33 11.99 -1.66 12.98 -2 14 C-2.25028811 12.41986783 -2.47440946 10.83557694 -2.6875 9.25 C-2.81511719 8.36828125 -2.94273438 7.4865625 -3.07421875 6.578125 C-2.98397191 3.44323483 -2.07384637 2.28176413 0 0 Z " fill="#535853" transform="translate(11,12)"/>
<path d="M0 0 C3.63 0 7.26 0 11 0 C11 0.99 11 1.98 11 3 C8.69 3.66 6.38 4.32 4 5 C2.64567325 3.68799596 1.31266518 2.35368596 0 1 C0 0.67 0 0.34 0 0 Z " fill="#393B39" transform="translate(20,36)"/>
<path d="M0 0 C3.875 1.75 3.875 1.75 5 4 C6.64363134 4.72159424 8.31050386 5.39351421 10 6 C9.01 6.495 9.01 6.495 8 7 C7.67 7.66 7.34 8.32 7 9 C4.69 8.01 2.38 7.02 0 6 C0 4.02 0 2.04 0 0 Z " fill="#6A5048" transform="translate(31,17)"/>
<path d="M0 0 C1.98 0 3.96 0 6 0 C6 0.66 6 1.32 6 2 C5.38125 2.28875 4.7625 2.5775 4.125 2.875 C1.86674235 3.93720042 1.86674235 3.93720042 0 6 C0 5.34 0 4.68 0 4 C-0.66 4 -1.32 4 -2 4 C-2 4.66 -2 5.32 -2 6 C-2.66 6 -3.32 6 -4 6 C-4 5.01 -4 4.02 -4 3 C-3.01 3 -2.02 3 -1 3 C-0.67 2.01 -0.34 1.02 0 0 Z " fill="#B9B8B9" transform="translate(40,2)"/>
<path d="M0 0 C1.98 0 3.96 0 6 0 C6 0.99 6 1.98 6 3 C5.34 3 4.68 3 4 3 C4 3.66 4 4.32 4 5 C2.68 5.33 1.36 5.66 0 6 C0 4.02 0 2.04 0 0 Z " fill="#F1DCD9" transform="translate(24,17)"/>
<path d="M0 0 C0 0.33 0 0.66 0 1 C-1.19625 1.103125 -2.3925 1.20625 -3.625 1.3125 C-7.5778146 1.78207195 -10.47005092 3.15097905 -14 5 C-14.66 4.67 -15.32 4.34 -16 4 C-10.77531236 -0.39973696 -6.69286912 -0.47617251 0 0 Z " fill="#393C39" transform="translate(29,5)"/>
<path d="M0 0 C0 2.97 0 5.94 0 9 C-0.33 7.68 -0.66 6.36 -1 5 C-2.32 5 -3.64 5 -5 5 C-4.625 3.0625 -4.625 3.0625 -4 1 C-2 0 -2 0 0 0 Z " fill="#888988" transform="translate(46,4)"/>
<path d="M0 0 C0.93423645 3.01031744 1.04449911 3.86650268 0 7 C-1.65 7 -3.3 7 -5 7 C-5 6.01 -5 5.02 -5 4 C-4.01 4 -3.02 4 -2 4 C-1.34 2.68 -0.68 1.36 0 0 Z " fill="#7D807D" transform="translate(43,39)"/>
<path d="M0 0 C6.75 0.75 6.75 0.75 9 3 C12.08347826 3.16681109 12.08347826 3.16681109 15 3 C15 3.66 15 4.32 15 5 C12.36 5.33 9.72 5.66 7 6 C6.67 5.01 6.34 4.02 6 3 C2.99152582 1.77479736 2.99152582 1.77479736 0 1 C0 0.67 0 0.34 0 0 Z " fill="#323130" transform="translate(27,12)"/>
<path d="M0 0 C1.32 0.33 2.64 0.66 4 1 C4.33 2.32 4.66 3.64 5 5 C3.68 5.33 2.36 5.66 1 6 C0.67 4.02 0.34 2.04 0 0 Z " fill="#355799" transform="translate(14,37)"/>
<path d="M0 0 C0.33 0.66 0.66 1.32 1 2 C0.0625 4.125 0.0625 4.125 -1 6 C-0.34 6 0.32 6 1 6 C1.33 5.34 1.66 4.68 2 4 C2.33 5.32 2.66 6.64 3 8 C1.68 8 0.36 8 -1 8 C-2 7 -2 7 -2.1875 4.5625 C-2 2 -2 2 0 0 Z " fill="#383737" transform="translate(17,18)"/>
<path d="M0 0 C2.375 0.25 2.375 0.25 5 1 C6.3125 3.0625 6.3125 3.0625 7 5 C4.69 4.34 2.38 3.68 0 3 C0 2.01 0 1.02 0 0 Z " fill="#ECEDEC" transform="translate(27,39)"/>
<path d="M0 0 C0.495 0.309375 0.99 0.61875 1.5 0.9375 C4.97986781 2.41644382 8.24028509 2.62402851 12 3 C12 3.33 12 3.66 12 4 C8.04 4 4.08 4 0 4 C0 2.68 0 1.36 0 0 Z " fill="#3E4023" transform="translate(22,42)"/>
<path d="M0 0 C0.33 0 0.66 0 1 0 C1 1.98 1 3.96 1 6 C-0.98 6 -2.96 6 -5 6 C-4.34 4.68 -3.68 3.36 -3 2 C-2.01 2 -1.02 2 0 2 C0 1.34 0 0.68 0 0 Z " fill="#747674" transform="translate(7,40)"/>
<path d="M0 0 C2 1.3125 2 1.3125 4 3 C4 3.99 4 4.98 4 6 C3.01 5.67 2.02 5.34 1 5 C0.67 5.99 0.34 6.98 0 8 C-0.38063221 5.6739143 -0.71269945 3.33944736 -1 1 C-0.67 0.67 -0.34 0.34 0 0 Z " fill="#26292E" transform="translate(19,36)"/>
<path d="M0 0 C1.65 0 3.3 0 5 0 C5 0.66 5 1.32 5 2 C3.88625 2.474375 2.7725 2.94875 1.625 3.4375 C-0.26710994 4.25306463 -2.15712709 5.07856355 -4 6 C-3.34 4.68 -2.68 3.36 -2 2 C-1.34 2 -0.68 2 0 2 C0 1.34 0 0.68 0 0 Z " fill="#9A0A28" transform="translate(21,12)"/>
<path d="M0 0 C2.475 0.495 2.475 0.495 5 1 C5.33 1.99 5.66 2.98 6 4 C4.35 4 2.7 4 1 4 C0.67 2.68 0.34 1.36 0 0 Z " fill="#E2CEBD" transform="translate(33,24)"/>
<path d="M0 0 C1.65 0 3.3 0 5 0 C5.33 0.99 5.66 1.98 6 3 C5.01 3 4.02 3 3 3 C2.67 3.66 2.34 4.32 2 5 C2 4.34 2 3.68 2 3 C1.34 3 0.68 3 0 3 C0 2.01 0 1.02 0 0 Z " fill="#D44047" transform="translate(26,6)"/>
<path d="M0 0 C0.99 0 1.98 0 3 0 C2.6875 2.375 2.6875 2.375 2 5 C1.01 5.66 0.02 6.32 -1 7 C-0.67 4.69 -0.34 2.38 0 0 Z " fill="#323433" transform="translate(39,24)"/>
<path d="M0 0 C0.66 0 1.32 0 2 0 C2 1.65 2 3.3 2 5 C1.01 4.67 0.02 4.34 -1 4 C-0.67 2.68 -0.34 1.36 0 0 Z M-2 5 C-1.01 5 -0.02 5 1 5 C1 5.66 1 6.32 1 7 C-0.32 6.67 -1.64 6.34 -3 6 C-2.67 5.67 -2.34 5.34 -2 5 Z " fill="#957360" transform="translate(28,20)"/>
<path d="M0 0 C3.63 0 7.26 0 11 0 C10.67 0.99 10.34 1.98 10 3 C6.7 2.34 3.4 1.68 0 1 C0 0.67 0 0.34 0 0 Z " fill="#DADADA" transform="translate(29,2)"/>
<path d="M0 0 C2.4375 0.375 2.4375 0.375 5 1 C5.33 1.66 5.66 2.32 6 3 C3.69 3.33 1.38 3.66 -1 4 C-0.67 2.68 -0.34 1.36 0 0 Z " fill="#28292B" transform="translate(9,42)"/>
<path d="M0 0 C2.1519437 3.22791555 2.20086443 4.28400809 2 8 C0.68 8.33 -0.64 8.66 -2 9 C-1.34 6.03 -0.68 3.06 0 0 Z " fill="#B86360" transform="translate(20,19)"/>
</svg>
